<?xml version="1.0" encoding="UTF-8" standalone="no"?>
<!DOCTYPE svg PUBLIC "-//W3C//DTD SVG 1.1//EN" "http://www.w3.org/Graphics/SVG/1.1/DTD/svg11.dtd">
<svg width="100%" height="100%" viewBox="0 0 1886 800" version="1.1" xmlns="http://www.w3.org/2000/svg" xmlns:xlink="http://www.w3.org/1999/xlink" xml:space="preserve" xmlns:serif="http://www.serif.com/" style="fill-rule:evenodd;clip-rule:evenodd;stroke-linejoin:round;stroke-miterlimit:2;">
    <g transform="matrix(1.08608,0,0,1.08608,-34.5308,-34.8154)">
        <g transform="matrix(-4.47254,2.23627,7.3113e-16,1.57618,1546.6,-351.592)">
            <rect x="192.214" y="102.373" width="64.151" height="203.522" style="fill:rgb(3,3,3);"/>
        </g>
        <g transform="matrix(4.47254,2.23627,-7.3113e-16,1.57618,-745.197,-350.889)">
            <rect x="192.214" y="102.373" width="64.151" height="203.522" style="fill:rgb(3,3,3);"/>
        </g>
        <g transform="matrix(0.83404,-0.41702,0.722482,0.361241,210.634,0.780595)">
            <rect x="-344.832" y="263.05" width="344.012" height="398.105"/>
        </g>
    </g>
    <g transform="matrix(1.25799,0,0,1.25799,-103.261,-12.8661)">
        <g transform="matrix(0.829575,0.414787,-6.36404e-17,1.25294,12.4655,-7.57755)">
            <rect x="192.214" y="102.373" width="64.151" height="203.522" style="fill:rgb(229,229,229);"/>
        </g>
        <g transform="matrix(2.72575,1.36287,-9.98015e-17,0.292352,-298.786,-64.8658)">
            <rect x="192.214" y="102.373" width="64.151" height="203.522" style="fill:rgb(229,229,229);"/>
        </g>
        <g transform="matrix(-2.72563,1.36281,1.45342e-16,0.292352,1098.76,-64.8468)">
            <rect x="192.214" y="102.373" width="64.151" height="203.522" style="fill:rgb(229,229,229);"/>
        </g>
        <g transform="matrix(-2.37021,1.18511,3.87461e-16,0.835291,1007.64,10.1252)">
            <rect x="192.214" y="102.373" width="64.151" height="203.522" style="fill:rgb(229,229,229);"/>
        </g>
        <g transform="matrix(2.37021,1.18511,-4.32901e-16,0.835291,-207.64,10.1252)">
            <rect x="192.214" y="102.373" width="64.151" height="203.522" style="fill:rgb(229,229,229);"/>
        </g>
        <g transform="matrix(-0.829575,0.414787,6.36404e-17,1.25294,787.534,-7.57755)">
            <rect x="192.214" y="102.373" width="64.151" height="203.522" style="fill:rgb(229,229,229);"/>
        </g>
        <g transform="matrix(0.441998,-0.220999,0.381941,0.190971,299.892,35.9611)">
            <rect x="-344.832" y="263.05" width="344.012" height="398.105" style="fill:rgb(229,229,229);"/>
        </g>
        <g transform="matrix(0.662996,-0.331498,-0.133679,-0.0668397,663.787,217.727)">
            <rect x="-344.832" y="263.05" width="344.012" height="398.105" style="fill:rgb(229,229,229);"/>
        </g>
        <g transform="matrix(0.154699,-0.0773496,-0.572912,-0.286456,604.05,363.136)">
            <rect x="-344.832" y="263.05" width="344.012" height="398.105" style="fill:rgb(229,229,229);"/>
        </g>
    </g>
    <g transform="matrix(0.890066,0,0,0.890066,137.585,43.4842)">
        <text x="732.385px" y="452.887px" style="font-family:'Urbanist-Bold', 'Urbanist', sans-serif;font-weight:700;font-size:209.349px;fill:rgb(229,229,229);">M<tspan x="924.567px 1052.58px 1190.54px 1383.35px 1522.36px 1634.78px 1757.77px " y="452.887px 452.887px 452.887px 452.887px 452.887px 452.887px 452.887px ">y_Maker</tspan></text>
        <path d="M796.927,460.891L802.824,476.502L857.582,476.502L863.55,460.702L867.265,479.851L948.272,479.851L909.323,279.379L847.353,279.379L830.255,324.354C830.255,324.354 813.158,279.379 813.158,279.379L751.188,279.379L712.239,479.851L793.271,479.851L796.927,460.891ZM744.946,452.887L773.417,306.343L794.561,306.343L830.255,400.236L865.949,306.343L887.094,306.343L915.565,452.887L889.501,452.887L871.916,362.239L838.943,449.537L821.463,449.537L788.49,362.239L771.01,452.887L744.946,452.887Z"/>
        <path d="M985.005,335.145L980.519,321.248L894.575,321.248L941.956,452.862C941.956,452.862 913.24,532.188 913.24,532.188L997.656,532.188L1074.58,321.248L990.096,321.248L985.005,335.145ZM1008.93,348.213L1036.05,348.213L978.788,505.224L951.678,505.224L970.624,452.887L932.941,348.213L960.889,348.213L983.394,417.926L1008.93,348.213Z"/>
        <path d="M1196.78,412.106L1038.18,412.106L1038.18,491.575L1196.78,491.575L1196.78,412.106ZM1065.14,439.07L1169.82,439.07L1169.82,464.611L1065.14,464.611L1065.14,439.07Z"/>
        <path d="M1390.9,399.926C1390.95,407.185 1392.28,414.014 1394.88,420.406L1406.43,479.851L1325.42,479.851L1321.71,460.702L1315.74,476.502L1260.98,476.502L1255.09,460.891L1251.43,479.851L1170.4,479.851L1209.35,279.379L1271.32,279.379C1271.32,279.379 1288.41,324.354 1288.41,324.354L1305.51,279.379L1367.48,279.379L1390.9,399.926ZM1203.11,452.887L1231.58,306.343L1252.72,306.343L1288.41,400.236L1324.11,306.343L1345.25,306.343L1373.72,452.887L1347.66,452.887L1330.08,362.239L1297.1,449.537L1279.62,449.537L1246.65,362.239L1229.17,452.887L1203.11,452.887Z"/>
        <path d="M1364,402.826L1368.88,427.938C1369.34,429.193 1369.83,430.436 1370.35,431.669C1374.58,441.679 1380.52,450.5 1388.15,458.137C1395.73,465.712 1404.48,471.657 1414.4,475.957C1424.51,480.331 1435.33,482.573 1446.89,482.573C1453.53,482.573 1459.66,481.633 1465.31,479.851L1528.6,479.851L1528.6,321.248L1464.54,321.248C1458.35,319.318 1451.71,318.318 1444.59,318.318C1433.32,318.318 1422.8,320.485 1413,324.699C1403.33,328.859 1394.81,334.637 1387.42,342.021C1379.96,349.483 1374.17,358.146 1370.07,368.026C1366.01,377.81 1363.93,388.261 1363.93,399.398C1363.93,400.548 1363.95,401.69 1364,402.826ZM1476.1,348.213L1501.64,348.213L1501.64,452.887L1475.99,452.887L1474.94,439.907C1472.01,444.583 1468.19,448.369 1463.48,451.265C1458.77,454.161 1453.24,455.609 1446.89,455.609C1439.15,455.609 1431.89,454.143 1425.12,451.212C1418.35,448.281 1412.38,444.234 1407.22,439.07C1402.06,433.906 1398.04,427.94 1395.18,421.171C1392.32,414.402 1390.89,407.144 1390.89,399.398C1390.89,391.932 1392.25,384.919 1394.97,378.359C1397.69,371.799 1401.53,366.042 1406.49,361.088C1411.44,356.133 1417.16,352.26 1423.65,349.469C1430.14,346.678 1437.12,345.282 1444.59,345.282C1451.57,345.282 1457.8,346.817 1463.27,349.888C1468.75,352.958 1473.41,356.866 1477.25,361.611L1476.1,348.213ZM1447.62,431.01C1453.21,431.01 1458.06,429.58 1462.17,426.718C1466.29,423.857 1469.41,420.037 1471.54,415.257C1473.67,410.477 1474.53,405.19 1474.11,399.398C1473.62,393.955 1472.01,389.018 1469.29,384.587C1466.57,380.156 1463.08,376.614 1458.82,373.963C1454.57,371.311 1449.79,369.985 1444.48,369.985C1438.97,369.985 1434.03,371.416 1429.67,374.277C1425.31,377.138 1421.94,380.958 1419.57,385.738C1417.2,390.519 1416.26,395.84 1416.75,401.701C1417.3,407.075 1419.05,411.977 1421.98,416.408C1424.91,420.839 1428.63,424.381 1433.13,427.032C1437.63,429.684 1442.46,431.01 1447.62,431.01ZM1447.04,403.903L1446.81,403.8C1445.86,403.239 1445.09,402.471 1444.47,401.533C1443.97,400.784 1443.69,399.951 1443.58,399.05C1443.54,398.548 1443.53,398.114 1443.72,397.727C1443.91,397.361 1444.13,397.041 1444.46,396.823C1444.5,396.799 1444.44,396.949 1444.48,396.949C1444.53,396.949 1444.53,396.826 1444.57,396.849L1444.57,396.849C1445.29,397.302 1445.85,397.943 1446.32,398.699C1446.85,399.563 1447.11,400.538 1447.23,401.588C1447.28,402.425 1447.27,403.2 1447.04,403.903Z"/>
        <path d="M1588.16,479.851C1588.16,479.851 1629.13,479.851 1629.13,479.851L1652.47,439.382L1626.13,393.873C1626.13,393.873 1649.89,365.539 1649.89,365.539L1629.23,321.248L1588.16,321.248L1588.16,268.911L1508.69,268.911L1508.69,479.851L1588.16,479.851ZM1629.13,452.887L1599.72,452.887L1575.85,411.75L1561.2,429.231L1561.2,452.887L1535.65,452.887L1535.65,295.876L1561.2,295.876L1561.2,389.559L1595.84,348.213L1629.23,348.213L1593.33,391.025L1629.13,452.887Z"/>
        <path d="M1770.34,424.317L1770.34,381.097C1770.08,380.009 1769.8,378.927 1769.49,377.849C1766.33,366.644 1761.25,356.682 1754.33,347.922C1747.13,338.823 1738.38,331.657 1728.06,326.42C1717.55,321.084 1706.01,318.318 1693.4,318.318C1682.29,318.318 1671.83,320.566 1662.02,324.989C1652.42,329.311 1644.02,335.294 1636.8,342.936C1629.75,350.395 1624.19,359.02 1620.18,368.845C1616.16,378.686 1614.1,389.213 1614.1,400.445C1614.1,415.394 1617.67,429.032 1624.63,441.403C1631.62,453.829 1641.02,463.685 1652.77,471.037C1665,478.686 1678.53,482.573 1693.4,482.573L1693.4,482.573C1709.57,482.573 1724.16,477.979 1737.2,468.871C1749.38,460.369 1758.59,449.475 1764.87,436.202L1768.42,436.202L1770,425.055L1770.34,424.317ZM1693.4,455.609C1683.77,455.609 1674.99,453.131 1667.07,448.177C1659.15,443.222 1652.84,436.558 1648.13,428.184C1643.42,419.81 1641.06,410.564 1641.06,400.445C1641.06,392.839 1642.42,385.704 1645.14,379.039C1647.87,372.375 1651.62,366.513 1656.4,361.454C1661.18,356.395 1666.74,352.435 1673.09,349.574C1679.44,346.712 1686.21,345.282 1693.4,345.282C1701.56,345.282 1709.05,347.009 1715.85,350.463C1722.66,353.918 1728.43,358.645 1733.18,364.647C1737.92,370.648 1741.38,377.487 1743.54,385.163C1745.7,392.839 1746.19,400.864 1745,409.238L1668.49,409.238C1669.46,413.146 1671.07,416.652 1673.3,419.758C1675.54,422.863 1678.36,425.34 1681.78,427.189C1685.2,429.039 1689.07,429.998 1693.4,430.068C1697.87,430.138 1701.93,429.074 1705.59,426.875C1709.26,424.677 1712.31,421.694 1714.75,417.926L1740.82,423.997C1736.56,433.278 1730.21,440.867 1721.77,446.764C1713.32,452.66 1703.87,455.609 1693.4,455.609ZM1667.65,390.082L1719.15,390.082C1718.38,385.895 1716.76,382.11 1714.28,378.725C1711.81,375.341 1708.75,372.637 1705.12,370.613C1701.49,368.589 1697.59,367.577 1693.4,367.577C1689.21,367.577 1685.34,368.572 1681.78,370.561C1678.22,372.55 1675.2,375.236 1672.73,378.621C1670.25,382.005 1668.56,385.826 1667.65,390.082Z"/>
        <path d="M1743.37,384.617L1743.37,321.248L1806.38,321.248C1812.13,319.456 1818.29,318.527 1824.87,318.527C1827.83,318.527 1830.69,318.616 1833.43,318.79C1837.82,319.069 1842.02,319.848 1846.05,321.099L1868.15,327.956L1854.37,420.172L1823.05,399.294L1823.05,479.851L1743.37,479.851L1743.37,409.238L1745,409.238C1746.19,400.864 1745.7,392.839 1743.54,385.163L1743.37,384.617ZM1833.98,374.172C1832.09,372.916 1830.05,371.904 1827.85,371.136C1825.65,370.369 1823.23,369.985 1820.58,369.985C1815.49,369.985 1811.11,371.311 1807.44,373.963C1803.78,376.614 1800.97,380.156 1799.02,384.587C1797.06,389.018 1796.09,393.921 1796.09,399.294L1796.09,452.887L1770.34,452.887L1770.34,348.213L1795.88,348.213L1795.88,360.564C1799.37,355.959 1803.53,352.295 1808.38,349.574C1813.23,346.852 1818.73,345.491 1824.87,345.491C1827.24,345.491 1829.53,345.561 1831.73,345.701C1833.92,345.84 1836.04,346.224 1838.06,346.852L1833.98,374.172ZM1818.96,396.593L1819.03,396.614L1819.02,396.608L1818.96,396.593Z"/>
    </g>
</svg>
