<?xml version="1.0" standalone="no"?>
<!DOCTYPE svg PUBLIC "-//W3C//DTD SVG 20010904//EN"
 "http://www.w3.org/TR/2001/REC-SVG-20010904/DTD/svg10.dtd">
<svg version="1.0" xmlns="http://www.w3.org/2000/svg"
 width="800.000000pt" height="800.000000pt" viewBox="0 0 800.000000 800.000000"
 preserveAspectRatio="xMidYMid meet">
<metadata>
Created by potrace 1.14, written by Peter Selinger 2001-2017
</metadata>
<g transform="translate(0.000000,800.000000) scale(0.100000,-0.100000)"
fill="#000000" stroke="none">
<path d="M2435 6522 l-1550 -777 3 -1748 2 -1747 1560 -780 c1275 -637 1563
-778 1574 -768 7 7 707 359 1555 783 l1541 770 0 1745 0 1745 -1555 778 c-855
427 -1561 777 -1568 776 -6 0 -709 -350 -1562 -777z m2525 34 l945 -474 -953
-476 -952 -476 -952 476 -953 476 945 474 c520 260 952 473 960 473 8 0 440
-213 960 -473z m-2055 -1173 l1095 -548 1100 550 1100 550 335 -168 335 -167
0 -1600 0 -1600 -330 -165 c-181 -91 -332 -165 -335 -165 -3 0 -5 551 -5 1225
0 674 -2 1225 -5 1225 -3 0 -498 -246 -1100 -547 l-1095 -548 -1095 548 c-602
301 -1097 547 -1100 547 -3 0 -5 -551 -5 -1225 0 -674 -2 -1225 -5 -1225 -3 0
-154 74 -335 165 l-330 165 0 1600 0 1600 328 164 c180 91 333 165 339 165 7
1 506 -245 1108 -546z m2050 -1810 l955 477 0 -1065 0 -1065 -955 -477 -955
-478 -955 478 -955 477 0 1065 0 1065 955 -477 955 -478 955 478z"/>
<path d="M1141 5596 c10 -9 2189 -1095 2189 -1091 0 5 -2176 1095 -2187 1095
-3 0 -4 -2 -2 -4z"/>
<path d="M5758 5054 c-599 -299 -1088 -546 -1088 -549 0 -4 2179 1082 2189
1091 19 18 -148 -64 -1101 -542z"/>
</g>
</svg>
